# AST/ASF file generated using VICON BodyLanguage
# -----------------------------------------------
:version 1.10
:name VICON
:units
  mass 1.0
  length 0.45
  angle deg
:documentation
   .ast/.asf automatically generated from VICON data using
   VICON BodyBuilder and BodyLanguage model FoxedUp or BRILLIANT.MOD
:root
   order TX TY TZ RX RY RZ
   axis XYZ
   position 0 0 0  
   orientation 0 0 0 
:bonedata
  begin
     id 1 
     name lhipjoint
     direction 0.62366 -0.717238 0.310833 
     length 2.53602 
     axis 0 0 0  XYZ
  end
  begin
     id 2 
     name lfemur
     direction 0.34202 -0.939693 0  
     length 7.40817  
     axis 0 0 20  XYZ
    dof rx ry rz
    limits (-160.0 20.0)
           (-70.0 70.0)
           (-60.0 70.0)
  end
  begin
     id 3 
     name ltibia
     direction 0.34202 -0.939693 0   
     length 7.7045   
     axis 0 0 20   XYZ
    dof rx
    limits (-10.0 170.0)
  end
  begin
     id 4 
     name lfoot
     direction 0.0673888 -0.185149 0.980397   
     length 2.09456   
     axis -90 7.62852e-016 20   XYZ
    dof rx rz
    limits (-45.0 90.0)
           (-70.0 20.0)
  end
  begin
     id 5 
     name ltoes
     direction 1.53575e-011 -4.21994e-011 1   
     length 1.05543   
     axis -90 7.62852e-016 20   XYZ
    dof rx
    limits (-90.0 20.0)
  end
  begin
     id 6 
     name rhipjoint
     direction -0.489018 -0.800347 0.346851   
     length 2.27268  
     axis 0 0 0  XYZ 
  end
  begin
     id 7 
     name rfemur
     direction -0.34202 -0.939693 0   
     length 7.55487   
     axis 0 0 -20   XYZ
    dof rx ry rz
    limits (-160.0 20.0)
           (-70.0 70.0)
           (-70.0 60.0)
  end
  begin
     id 8 
     name rtibia
     direction -0.34202 -0.939693 0   
     length 7.78969   
     axis 0 0 -20   XYZ
    dof rx
    limits (-10.0 170.0)
 end
 begin
     id 9 
     name rfoot
     direction -0.0859318 -0.236096 0.967923   
     length 2.19143  
     axis -90 -7.62852e-016 -20   XYZ
    dof rx rz
    limits (-45.0 90.0)
           (-20.0 70.0)
  end
  begin
     id 10 
     name rtoes
     direction -1.53538e-011 -4.21989e-011 1   
     length 1.09845   
     axis -90 -7.62852e-016 -20   XYZ
    dof rx
    limits (-90.0 20.0)
  end
  begin
     id 11 
     name lowerback
     direction -0.00762546 0.998978 -0.0445553   
     length 1.98161   
     axis 0 0 0   XYZ
    dof rx ry rz
    limits (-20.0 45.0)
           (-30.0 30.0)
           (-30.0 30.0)
  end
  begin
     id 12 
     name upperback
     direction 0.0422361 0.998867 -0.0219156   
     length 1.97558   
     axis 0 0 0   XYZ
    dof rx ry rz
    limits (-20.0 45.0)
           (-30.0 30.0)
           (-30.0 30.0)
  end
  begin
     id 13 
     name thorax
     direction 0.0442465 0.999021 7.47603e-005   
     length 1.97799   
     axis 0 0 0   XYZ
    dof rx ry rz
    limits (-20.0 45.0)
           (-30.0 30.0)
           (-30.0 30.0)
  end
  begin
     id 14 
     name lowerneck
     direction 0.00312169 0.984641 0.174564   
     length 1.78995   
     axis 0 0 0   XYZ
    dof rx ry rz
    limits (-20.0 45.0)
           (-30.0 30.0)
           (-30.0 30.0)
  end
  begin
     id 15 
     name upperneck
     direction -0.0383028 0.985255 -0.166749   
     length 1.83053   
     axis 0 0 0   XYZ
    dof rx ry rz
    limits (-20.0 45.0)
           (-30.0 30.0)
           (-30.0 30.0)
  end
  begin
     id 16
     name head
     direction -0.0129546 0.997059 -0.0755386  
     length 1.84088  
     axis 0 0 0   XYZ
    dof rx ry rz
    limits (-20.0 45.0)
           (-30.0 30.0)
           (-30.0 30.0)
  end
  begin
     id 17 
     name lclavicle
     direction 0.912857 0.370519 -0.171488  
     length 3.51279  
     axis 0 0 0   XYZ
    dof ry rz
    limits (-20.0 10.0)
           (0.0 20.0)
  end
  begin
     id 18 
     name lhumerus
     direction 1 -4.48962e-011 3.64361e-027   
     length 4.95663   
     axis 180 -30 -90   XYZ
    dof rx ry rz
    limits (-60.0 90.0)
           (-90.0 90.0)
           (-90.0 90.0)
  end
  begin
     id 19
     name lradius
     direction 1 -4.48974e-011 5.97202e-027   
     length 3.38177   
     axis 180 -30 -90   XYZ
    dof rx
    limits (-10.0 170.0)
  end
  begin
     id 20
     name lwrist
     direction 1 -4.4896e-011 9.83288e-027   
     length 1.69088   
     axis -9.31221e-015 90 90   XYZ
    dof ry
    limits (-180.0 0.0)
 end
  begin
     id 21 
     name lhand
     direction 1 -4.4902e-011 1.96551e-026   
     length 0.662909   
     axis -1.25475e-014 90 90   XYZ
    dof rx rz
    limits (-90.0 90.0)
           (-45.0 45.0)
  end
  begin
     id 22 
     name lfingers
     direction 1 -4.48971e-011 3.93277e-026   
     length 0.534454   
     axis -2.50945e-014 90 90   XYZ
    dof rx
    limits (0.0 90.0)
  end
  begin
     id 23
     name lthumb
     direction 0.707107 -6.34933e-011 0.707107   
     length 0.767373   
     axis -90 45 -4.80359e-014   XYZ
    dof rx rz
    limits (-45.0 45.0)
           (-45.0 45.0)
  end
  begin
     id 24 
     name rclavicle
     direction -0.900919 0.395364 -0.178976   
     length 3.40627  
     axis 0 0 0   XYZ 
    dof ry rz
    limits (-10.0 20.0)
           (-20.0 0.0)
  end
  begin
     id 25 
     name rhumerus
     direction -1 -4.48969e-011 1.03875e-027  
     length 5.08365   
     axis 180 30 90   XYZ
    dof rx ry rz
    limits (-90.0 60.0)
           (-90.0 90.0)
           (-90.0 90.0)
  end
  begin
     id 26 
     name rradius
     direction -1 -4.48951e-011 5.02733e-027   
     length 3.35984   
     axis 180 30 90   XYZ
    dof rx
    limits (-10.0 170.0)
  end
  begin
     id 27 
     name rwrist
     direction -1 -4.49011e-011 9.82828e-027   
     length 1.67992   
     axis -9.31221e-015 -90 -90   XYZ
    dof ry
    limits (-180.0 0.0)
  end
  begin
     id 28
     name rhand
     direction -1 -4.48894e-011 1.96774e-026   
     length 0.820764   
     axis -1.25475e-014 -90 -90   XYZ
    dof rx rz
    limits (-90.0 90.0)
           (-45.0 45.0)
  end
  begin
     id 29
     name rfingers
     direction -1 -4.49095e-011 3.92833e-026   
     length 0.661721   
     axis -2.50945e-014 -90 -90   XYZ
    dof rx
    limits (0.0 90.0)
  end
  begin
     id 30
     name rthumb
     direction -0.707107 -6.34881e-011 0.707107   
     length 0.950103   
     axis -90 -45 4.80359e-014   XYZ
    dof rx rz
    limits (-45.0 45.0)
           (-45.0 45.0)
  end
:hierarchy
  begin
    root lhipjoint rhipjoint lowerback
    lhipjoint lfemur
    lfemur ltibia
    ltibia lfoot
    lfoot ltoes
    rhipjoint rfemur
    rfemur rtibia
    rtibia rfoot
    rfoot rtoes
    lowerback upperback
    upperback thorax
    thorax lowerneck lclavicle rclavicle
    lowerneck upperneck
    upperneck head
    lclavicle lhumerus
    lhumerus lradius
    lradius lwrist
    lwrist lhand lthumb
    lhand lfingers
    rclavicle rhumerus
    rhumerus rradius
    rradius rwrist
    rwrist rhand rthumb
    rhand rfingers
  end

#!OML:ASF I:\golf\golf\golf 2\Subject 1\2002-09-07\Subject1.ASF
:FULLY-SPECIFIED
:DEGREES
32
root -1.11913 17.9979 -7.63084 9.6106 -3.4706 -2.73175
lowerback -6.00507 -1.84375 -3.78013
upperback -0.852148 -2.39015 5.75474
thorax 2.89425 -1.27768 7.97835
lowerneck -16.7269 -8.13093 -5.40123
upperneck 21.9793 -9.16455 -3.02886
head 9.86002 -5.04982 -1.40308
rclavicle 3.06128e-014 -1.90833e-014
rhumerus -27.414 -1.67479 -77.766
rradius 24.045
rwrist -5.94481
rhand -20.2926 11.9529
rfingers 7.12502
rthumb 6.05734 -17.9405
lclavicle 3.06128e-014 -1.90833e-014
lhumerus -26.0119 17.4944 83.4827
lradius 28.4913
lwrist 4.39813
lhand -10.478 33.0312
lfingers 7.12502
lthumb 15.5233 62.4281
rfemur -15.9356 -1.6877 29.3327
rtibia 27.2124
rfoot -15.6775 -7.71934
rtoes 12.7728
lfemur -13.8328 -1.69233 -9.49014
ltibia 24.9439
lfoot -14.6334 1.53975
ltoes -13.2372
33
root -1.12004 17.9966 -7.62915 9.61802 -3.5622 -2.70398
lowerback -6.00302 -1.80462 -3.79442
upperback -0.841793 -2.33682 5.74737
thorax 2.89519 -1.25129 7.98385
lowerneck -16.8967 -7.9561 -5.26113
upperneck 22.2448 -8.90804 -3.18042
head 9.96885 -4.93943 -1.45853
rclavicle 9.93923e-017 7.95139e-015
rhumerus -27.468 -1.24537 -77.8746
rradius 24.3397
rwrist -6.29876
rhand -20.2319 11.5893
rfingers 7.12502
rthumb 6.11593 -18.3024
lclavicle 9.93923e-017 7.95139e-015
lhumerus -25.9505 17.4769 83.4911
lradius 28.6721
lwrist 4.22
lhand -10.2407 33.0504
lfingers 7.12502
lthumb 15.7518 62.4294
rfemur -15.9608 -1.66969 29.2929
rtibia 27.2478
rfoot -15.6458 -7.68774
rtoes 12.2208
lfemur -13.8244 -1.70945 -9.53192
ltibia 24.974
lfoot -14.6335 1.60824
ltoes -13.0569
34
root -1.12095 17.9973 -7.62723 9.64349 -3.591 -2.71031
lowerback -6 -1.78827 -3.76807
upperback -0.857383 -2.31655 5.75858
thorax 2.87325 -1.23976 7.98271
lowerneck -17.0644 -7.75075 -5.23341
upperneck 22.6369 -8.60511 -3.21892
head 10.1358 -4.80488 -1.4558
rclavicle 2.0773e-014 -7.15625e-014
rhumerus -27.4551 -1.14855 -77.8843
rradius 24.4876
rwrist -6.22207
rhand -20.1693 11.2943
rfingers 7.12502
rthumb 6.17633 -18.5956
lclavicle 2.0773e-014 -7.15625e-014
lhumerus -25.9298 17.4699 83.5191
lradius 28.8324
lwrist 4.11098
lhand -10.2099 33.1091
lfingers 7.12502
lthumb 15.7816 62.4857
rfemur -15.9956 -1.64113 29.2929
rtibia 27.2861
rfoot -15.6313 -7.6309
rtoes 11.9689
lfemur -13.8431 -1.73871 -9.52813
ltibia 24.9958
lfoot -14.6119 1.63206
ltoes -12.7898
35
root -1.12168 17.998 -7.62414 9.63087 -3.59365 -2.64838
lowerback -5.95015 -1.78878 -3.81311
upperback -0.875074 -2.31398 5.74609
thorax 2.82762 -1.23698 7.99689
lowerneck -17.3093 -7.48972 -5.11516
upperneck 23.1226 -8.22532 -3.32645
head 10.344 -4.63688 -1.48621
rclavicle -3.86636e-014 3.02153e-014
rhumerus -27.4613 -0.989371 -77.9231
rradius 24.6539
rwrist -6.27837
rhand -20.1703 11.1768
rfingers 7.12502
rthumb 6.17544 -18.7132
lclavicle -3.86636e-014 3.02153e-014
lhumerus -25.9386 17.3752 83.5581
lradius 28.991
lwrist 4.22469
lhand -10.2795 33.0197
lfingers 7.12502
lthumb 15.7145 62.4016
rfemur -15.9741 -1.67678 29.2264
rtibia 27.3098
rfoot -15.6918 -7.65749
rtoes 11.5701
lfemur -13.8237 -1.75394 -9.60265
ltibia 25.0177
lfoot -14.6071 1.63834
ltoes -13.0058
36
root -1.12284 17.996 -7.62006 9.56498 -3.65008 -2.56168
lowerback -5.86648 -1.778 -3.90247
upperback -0.887136 -2.29382 5.72252
thorax 2.76717 -1.22545 8.02733
lowerneck -17.4926 -7.23076 -4.89368
upperneck 23.5833 -7.84906 -3.56056
head 10.523 -4.47781 -1.57337
rclavicle 4.07509e-015 -1.82882e-014
rhumerus -27.4967 -0.810527 -77.967
rradius 24.8043
rwrist -6.45527
rhand -20.1206 11.2656
rfingers 7.12502
rthumb 6.22339 -18.623
lclavicle 4.07509e-015 -1.82882e-014
lhumerus -25.9906 17.2514 83.592
lradius 29.1627
lwrist 4.46775
lhand -10.3969 32.8684
lfingers 7.12502
lthumb 15.6015 62.2592
rfemur -15.8919 -1.67913 29.1296
rtibia 27.3201
rfoot -15.7585 -7.74498
rtoes 11.0075
lfemur -13.7298 -1.68827 -9.72039
ltibia 25.0397
lfoot -14.6695 1.68278
ltoes -13.9658
37
root -1.12442 17.9929 -7.61863 9.53598 -3.72545 -2.59497
lowerback -5.85537 -1.74201 -3.84739
upperback -0.845531 -2.24957 5.70034
thorax 2.79376 -1.20434 7.97504
lowerneck -17.7058 -6.99439 -4.66297
upperneck 24.0211 -7.52775 -3.70452
head 10.7058 -4.3319 -1.63876
rclavicle -1.71949e-014 -4.37326e-014
rhumerus -27.4279 -0.751233 -78.0507
rradius 24.9338
rwrist -6.58286
rhand -20.0663 11.2119
rfingers 7.12502
rthumb 6.27578 -18.6751
lclavicle -1.71949e-014 -4.37326e-014
lhumerus -25.8571 17.1531 83.5919
lradius 29.1757
lwrist 4.52076
lhand -10.4759 32.7699
lfingers 7.12502
lthumb 15.5254 62.1666
rfemur -15.8492 -1.60589 29.1661
rtibia 27.3132
rfoot -15.7412 -7.74002
rtoes 11.3727
lfemur -13.692 -1.63187 -9.6902
ltibia 25.069
lfoot -14.7289 1.7445
ltoes -14.0689
38
root -1.12441 17.9915 -7.61615 9.5255 -3.80078 -2.67535
lowerback -5.84473 -1.69769 -3.67658
upperback -0.817813 -2.20013 5.65164
thorax 2.79987 -1.17788 7.82679
lowerneck -17.9385 -6.72957 -4.40915
upperneck 24.5557 -7.18886 -3.78299
head 10.9325 -4.1686 -1.68619
rclavicle 7.45443e-015 -4.05521e-014
rhumerus -27.3689 -0.759283 -78.1932
rradius 25.042
rwrist -6.64213
rhand -20.0891 11.3133
rfingers 7.12502
rthumb 6.25378 -18.5744
lclavicle 7.45443e-015 -4.05521e-014
lhumerus -25.7333 17.0692 83.5052
lradius 29.1213
lwrist 4.35988
lhand -10.3404 32.7394
lfingers 7.12502
lthumb 15.6559 62.1259
rfemur -15.8116 -1.59693 29.2486
rtibia 27.295
rfoot -15.6941 -7.64398
rtoes 11.6085
lfemur -13.6643 -1.67663 -9.59364
ltibia 25.0954
lfoot -14.7378 1.78938
ltoes -12.9539
39
root -1.12394 17.9911 -7.61238 9.52387 -3.88504 -2.70299
lowerback -5.82401 -1.67282 -3.56219
upperback -0.815605 -2.17339 5.62609
thorax 2.78079 -1.1623 7.73502
lowerneck -18.2006 -6.43924 -4.21093
upperneck 25.1525 -6.77737 -3.92365
head 11.1928 -3.98621 -1.73961
rclavicle 1.93815e-014 -4.6118e-014
rhumerus -27.2779 -0.709055 -78.2843
rradius 25.0958
rwrist -6.71974
rhand -20.2015 11.7189
rfingers 7.12502
rthumb 6.14524 -18.172
lclavicle 1.93815e-014 -4.6118e-014
lhumerus -25.7104 17.0917 83.442
lradius 29.1064
lwrist 4.25468
lhand -10.1368 32.8199
lfingers 7.12502
lthumb 15.8519 62.191
rfemur -15.7829 -1.62065 29.2658
rtibia 27.2744
rfoot -15.6731 -7.59915
rtoes 10.7678
lfemur -13.6275 -1.67903 -9.56864
ltibia 25.1044
lfoot -14.7621 1.83596
ltoes -12.8532
40
root -1.12483 17.9912 -7.60955 9.52908 -4.00285 -2.69181
lowerback -5.8218 -1.66379 -3.53712
upperback -0.788125 -2.16432 5.64232
thorax 2.80646 -1.15915 7.73866
lowerneck -18.5819 -6.10494 -4.0941
upperneck 25.8174 -6.26032 -4.08976
head 11.5109 -3.76878 -1.78014
rclavicle 6.16232e-015 2.54444e-014
rhumerus -27.0962 -0.573976 -78.3279
rradius 25.1631
rwrist -6.78188
rhand -20.4139 11.8084
rfingers 7.12502
rthumb 5.94021 -18.0883
lclavicle 6.16232e-015 2.54444e-014
lhumerus -25.6468 17.1984 83.4405
lradius 29.0525
lwrist 4.2003
lhand -10.0372 32.921
lfingers 7.12502
lthumb 15.9479 62.2844
rfemur -15.7665 -1.57363 29.2395
rtibia 27.2614
rfoot -15.6821 -7.57007
rtoes 10.4591
lfemur -13.589 -1.57726 -9.60059
ltibia 25.1005
lfoot -14.8005 1.8843
ltoes -13.5527
41
root -1.12785 17.9916 -7.60519 9.45798 -4.08124 -2.60582
lowerback -5.73881 -1.67056 -3.62457
upperback -0.774961 -2.16882 5.63068
thorax 2.77712 -1.16189 7.77822
lowerneck -18.9024 -5.72034 -3.87518
upperneck 26.5594 -5.69183 -4.2982
head 11.8479 -3.52647 -1.84402
rclavicle -2.27608e-014 -3.18055e-015
rhumerus -27.0056 -0.360733 -78.427
rradius 25.2851
rwrist -6.9245
rhand -20.5941 11.6953
rfingers 7.12502
rthumb 5.76624 -18.2063
lclavicle -2.27608e-014 -3.18055e-015
lhumerus -25.6446 17.2077 83.4285
lradius 28.9788
lwrist 4.2805
lhand -10.1355 32.7493
lfingers 7.12502
lthumb 15.8532 62.1203
rfemur -15.664 -1.53581 29.1414
rtibia 27.254
rfoot -15.7393 -7.51206
rtoes 11.3859
lfemur -13.4681 -1.49735 -9.70809
ltibia 25.0979
lfoot -14.8134 1.8896
ltoes -13.5603
